<?xml version="1.0" encoding="UTF-8"?>
<svg id="Layer_2" data-name="Layer 2" xmlns="http://www.w3.org/2000/svg" viewBox="0 0 264.88 91.85">
  <defs>
    <style>
      .cls-1 {
        fill: #fff;
      }
    </style>
  </defs>
  <g id="Layer_1-2" data-name="Layer 1">
    <path class="cls-1" d="m159.11,33.23c7.43,0,11.48,6.36,11.48,12.69s-4.06,12.7-11.48,12.7-11.88-6.36-11.88-12.7,4.46-12.69,11.88-12.69Zm-113.59,0c-7.42,0-11.88,6.36-11.88,12.69s4.46,12.7,11.88,12.7,11.48-6.36,11.48-12.7-4.06-12.69-11.48-12.69Zm219.36-4.53v63.15H28.7c-15.85,0-28.7-12.85-28.7-28.7V0h171v26.03c-3.38-1.96-7.3-3.07-11.48-3.07-12.68,0-22.96,10.28-22.96,22.96s10.28,22.97,22.96,22.97c5.17,0,9.95-1.71,13.78-4.6,2.1,2.79,5.43,4.6,9.19,4.6V0h53.69c15.85,0,28.7,12.85,28.7,28.7Zm-195.99-5.74c-3.76,0-7.09,1.8-9.19,4.59-3.84-2.88-8.61-4.59-13.78-4.59-12.68,0-22.96,10.28-22.96,22.96s10.28,22.97,22.96,22.97c5.17,0,9.94-1.71,13.78-4.6.33.43.68.84,1.07,1.23,2.08,2.08,4.95,3.37,8.12,3.37V22.96Zm57.41.2h-11.49v22.96c0,6.34-4.06,12.7-11.48,12.7s-11.88-6.36-11.88-12.7v-12.29c0-2.4-.71-4.63-1.92-6.46-1.99-3.03-5.35-5.02-9.15-5.02v23.77c0,12.69,10.28,22.97,22.96,22.97,5.17,0,9.94-1.71,13.78-4.6,2.09,2.79,5.43,4.6,9.19,4.6V23.16h0Zm115.62,22.77c0-12.69-10.28-22.97-22.96-22.97-5.17,0-9.94,1.71-13.78,4.6-2.09-2.79-5.43-4.6-9.19-4.6v45.93h11.48v-22.96c0-6.34,4.06-12.7,11.48-12.7s11.88,6.36,11.88,12.7v12.29c0,2.4.71,4.63,1.92,6.46,1.99,3.03,5.35,5.02,9.15,5.02v-23.77h0Z"/>
  </g>
</svg>