<svg width="266" height="93" viewBox="0 0 266 93" fill="none" xmlns="http://www.w3.org/2000/svg">
<path d="M159.314 34.1288C166.74 34.1288 170.795 40.4839 170.795 46.8203C170.795 53.1614 166.735 59.5165 159.314 59.5165C151.893 59.5165 147.433 53.1614 147.433 46.8203C147.433 40.4839 151.893 34.1288 159.314 34.1288ZM45.7191 34.1288C38.3025 34.1288 33.8376 40.4839 33.8376 46.8203C33.8376 53.1614 38.3025 59.5165 45.7191 59.5165C53.1403 59.5165 57.2001 53.1614 57.2001 46.8203C57.2001 40.4839 53.1403 34.1288 45.7191 34.1288ZM265.078 29.6034V92.749H28.9026C13.0498 92.749 0.200027 79.8992 0.200027 64.0511V0.900879H171.2V26.9357C167.82 24.9803 163.9 23.8629 159.719 23.8629C147.037 23.8629 136.757 34.1428 136.757 46.825C136.757 59.5071 147.037 69.7916 159.719 69.7916C164.892 69.7916 169.664 68.083 173.5 65.1964C175.595 67.9852 178.929 69.7916 182.686 69.7916V0.900879H236.376C252.228 0.900879 265.078 13.7507 265.078 29.6034ZM69.0908 23.8629C65.3336 23.8629 62.0001 25.6647 59.9051 28.4535C56.0641 25.5716 51.292 23.8629 46.1241 23.8629C33.4419 23.8629 23.1621 34.1428 23.1621 46.825C23.1621 59.5071 33.4419 69.7916 46.1241 69.7916C51.292 69.7916 56.0641 68.083 59.9051 65.1964C60.231 65.6294 60.5848 66.0391 60.9712 66.4256C63.0477 68.5067 65.9202 69.7916 69.0908 69.7916V23.8629ZM126.496 24.0631H115.01V47.0252C115.01 53.3662 110.95 59.7213 103.529 59.7213C96.108 59.7213 91.6478 53.3662 91.6478 47.0252V34.7387C91.6478 32.341 90.9401 30.1109 89.725 28.2765C87.7323 25.2457 84.3755 23.2577 80.5718 23.2577V47.0298C80.5718 59.7167 90.8517 69.9965 103.534 69.9965C108.702 69.9965 113.478 68.2878 117.315 65.4013C119.405 68.1901 122.743 69.9965 126.501 69.9965V24.0631H126.496ZM242.116 46.8296C242.116 34.1428 231.836 23.8629 219.154 23.8629C213.986 23.8629 209.21 25.5716 205.373 28.4581C203.283 25.6693 199.945 23.8629 196.187 23.8629V69.7916H207.668V46.8296C207.668 40.4885 211.728 34.1334 219.149 34.1334C226.571 34.1334 231.031 40.4885 231.031 46.8296V59.1161C231.031 61.5138 231.739 63.7439 232.954 65.5782C234.946 68.6091 238.303 70.5971 242.107 70.5971V46.8296H242.116Z" fill="#080811"/>
</svg>
