<?xml version="1.0" encoding="UTF-8"?>
<svg id="Layer_2" data-name="Layer 2" xmlns="http://www.w3.org/2000/svg" viewBox="0 0 920 337.4">
  <defs>
    <style>
      .cls-1 {
        fill: #fff;
      }
    </style>
  </defs>
  <g id="Layer_1-2" data-name="Layer 1">
    <g>
      <path class="cls-1" d="m920,116v6c-.27.41-.64.78-.79,1.23-20.67,62.18-41.63,124.26-61.66,186.64-3.33,10.36-8.86,16.43-18.36,19.94-1.27.47-2.92.66-4.17.27-15.72-4.91-31.42-9.87-47.04-15.07-1.35-.45-2.92-2.61-3.01-4.06-.35-5.61-.14-11.24-.14-17.2-17.5-2.55-34.06-4.96-51-7.42,1-8.89,1.96-17.43,2.9-25.8-7.59,1.89-14.91,3.72-22.43,5.59.34,2.29.64,4.74,1.06,7.16,1.85,10.64,1.93,10.77-7.87,15.9-2.77,1.45-6.26,3.09-9.09,2.63-23.16-3.76-46.23-8.04-69.35-12.06-2.75-.48-3.93-1.64-4.12-4.51-.35-5.23-1.12-10.44-1.77-16.15-4.47,2.4-8.21,4.41-12.18,6.54-2.9-5.22-5.59-10.07-8.26-14.88q-13.26,6.58-27.77,4.32c-.33-.05-.66-.07-.99-.12-16.9-2.7-33.8-5.41-51.11-8.18,1.5-9.37,2.94-18.34,4.24-26.43-10.72,3.68-21.53,7.27-32.19,11.24-1.19.44-2.21,3.01-2.24,4.6-.19,11.5-.1,23-.1,34.49,0,12.51-.06,12.39-11.15,18.27-3.08,1.63-5.43,1.71-8.63.1-27.06-13.58-54.24-26.93-81.39-40.34-7.52-3.71-15.08-7.36-23.17-11.31,0,11.88.06,22.85-.07,33.81-.02,1.46-.57,3.77-1.54,4.21-6.74,3.07-13.46,6.52-20.57,8.35-8.17,2.1-16.74,2.66-25.14,3.88-9.13,1.32-18.27,2.62-27.59,3.96-.8-7.8-1.54-15-2.35-22.87-15.95,13.17-33.14,21.55-53.77,20.19-20.99-1.38-36.6-11.86-48.22-29.08,4.04,15.55,8.08,31.11,12.15,46.76-8.23,5.68-16.09,11.15-25.86,13.94-17.54,5-34.76,11.09-52.44,16.84-22.15-50.12-44.12-99.83-66.19-149.79-5.38,2.22-10.38,4.29-15.53,6.42-8.85-14.88-17.46-29.49-26.21-44.03-4.85-8.07-9.91-16.01-14.88-24,0-.67,0-1.33,0-2,1.37-1.14,2.8-2.22,4.11-3.44,3.53-3.28,6.62-7.22,10.59-9.8,9.62-6.25,19.36-12.43,29.57-17.64,38.07-19.4,77.96-30.47,120.95-21.98,28.62,5.65,49.84,21.57,60.34,49.65,4.12,11.02,3.47,22.54,1.37,34.77,16.17-11.13,33.45-15.75,52.48-13.81-.26-3.47-.49-6.41-.73-9.63-4.96,1.18-9.59,2.27-14.46,3.42-.76-14.43-1.54-28.37-2.14-42.32-.05-1.17.85-2.99,1.84-3.5,6.18-3.21,12.28-6.81,18.83-9.03,18.89-6.42,37.98-12.26,57-18.3,7.24-2.3,14.5-4.54,22.13-6.93v11.24c4.35-7.43,12.1-8.68,18.03-12.73,17.59,15.58,34.77,30.8,51.92,45.99,4.1-2.26,7.84-4.32,11.91-6.56-3.73-4.44-7.25-8.62-10.88-12.92.66-.86,1.23-1.66,1.87-2.4,16.97-19.46,34.09-38.79,50.86-58.42,6.46-7.55,13.1-14.56,22.65-18.13.68-.26,1.18-1.01,1.76-1.53.67,0,1.33,0,2,0,1.15,1.99,2.19,4.05,3.47,5.96,10.18,15.19,20.4,30.36,30.83,45.86-16.36,8.79-32.46,17.44-48.07,25.83,8.74,2.17,17.74,3.43,25.92,6.72,8.14,3.27,15.46,8.57,23.24,13.03.78-4.71,1.6-9.76,2.48-14.81.19-1.11.32-2.86,1-3.17,6.24-2.87,11.21-8.47,18.83-8.38,12.33.15,24.65.09,36.98.02,1.57,0,3.44-.23,4.64-1.08,9.19-6.54,19.22-9.28,30.52-8.06,5.1.55,10.32.04,15.49.03,8.13-.01,16.27,0,24.58,0,4.24,26.62,8.41,52.82,12.7,79.74,13.31-9.29,27.57-13.56,43.05-13.86,0-11.02.54-21.68-.18-32.26-.51-7.44,1.56-11.7,8.58-14.86,4.97-2.24,9.19-3.18,14.54-1.94,22.52,5.21,45.1,10.23,67.75,14.86,5.95,1.22,10.45,2.72,10.52,9.72,0,.23.41.46,1.11,1.21,8.08-8.23,17.24-4.42,26.34-1.93,2.08.57,4.2,1,6.3,1.53,15.8,3.94,31.6,7.89,47.4,11.84ZM77.57,151.37c23.34,51.99,46.47,103.52,69.75,155.38,11.49-3.69,22.63-7.27,33.93-10.9-3.4-12.95-6.67-25.32-9.9-37.71-3.27-12.56-6.35-25.17-9.85-37.66-1.02-3.63-.47-5.5,2.8-7.66,17.37-11.49,31.61-25.96,40.8-44.93,14.25-29.42,6.39-55.26-21.44-72.41-12.12-7.47-25.51-9.69-39.14-10.36-36.05-1.77-68.85,9.41-99.99,26.51-3.14,1.72-6.17,3.65-9.48,5.62,8.67,14.56,16.97,28.52,25.33,42.57,5.8-2.86,11.15-5.5,17.17-8.47Zm763.74,42.92c-.67-1.96-.95-2.54-1.08-3.16-5.54-26.36-11.12-52.72-16.54-79.11-.67-3.25-2-4.74-5.4-5.23-5.76-.83-11.41-2.32-17.13-3.46-10.87-2.17-21.74-4.29-32.9-6.48-.36,3.67-.5,6.81-1,9.9-.58,3.59.49,5.65,4.29,6.23,2.44.37,4.8,1.19,7.6,1.91-.76,8.16-1.33,16.09-2.31,23.98-.37,2.96.41,4.85,2.42,7,9.32,9.96,14.39,21.78,15.02,35.52,1.05,22.87-8.07,41.37-23.99,57.07-1.16,1.14-2.86,2.4-3.04,3.76-1,7.53-1.6,15.11-2.37,22.9,10.87,1.68,21.16,3.26,31.75,4.9,4.73-26.64,9.38-52.87,14.04-79.11.41.05.83.1,1.24.15,0,7.13-.13,14.27.02,21.39.58,26.31,1.23,52.62,2.02,78.92.04,1.35,1.33,3.47,2.5,3.85,8.65,2.84,17.42,5.33,26.55,8.05,19.58-59.19,39.03-117.99,58.66-177.3-14-3.11-27.57-6.13-41.55-9.24-6.24,25.72-12.38,51.04-18.81,77.57ZM307.99,104.08c.3,1.39.61,2.33.69,3.29,1.19,14.26,2.46,28.52,3.47,42.79.33,4.75,1.6,8.58,4.69,12.55,17.62,22.66,16.96,46.9,5.16,71.83-.77,1.63-2.1,3.36-2.01,4.98.43,8.43,1.23,16.84,1.94,25.77,10.95-1.5,21.37-2.92,32.17-4.4v-64.19c41.17,20.55,81.71,40.79,122.56,61.18v-34.36c-1.27-.2-2.23-.36-3.2-.51-18.18-2.85-35.24-9.35-45.82-24.62-7.24-10.44-16.68-14.87-27.35-18.87-2.34-.88-4.66-1.79-6.97-2.72-7.35-2.95-14.69-5.91-22.46-9.04,17.36-18.28,34.3-36.12,51.47-54.2-12.36-11.74-24.49-23.26-36.85-35.01-12.55,17.59-24.79,34.75-37.76,52.94-1.08-18.16-2.1-35.14-3.14-52.7-13.63,4.02-26.66,7.87-39.69,11.71q-11.68,3.44-10.85,15.53c.02.31.24.61.55,1.33,4.24-1.04,8.56-2.1,13.42-3.29Zm361.14-26.43c-8.88,0-17.03-.15-25.16.15-1.31.05-3.4,1.92-3.69,3.26-1.7,7.96-2.96,16.02-4.39,24.03-1.97,11.05-3.96,22.09-5.95,33.14-.25-.01-.51-.03-.76-.04-3.19-17.28-6.37-34.55-9.58-51.94h-39.36c-.27.85-.61,1.6-.75,2.39-4.15,24.44-8.32,48.87-12.29,73.33-.23,1.41.84,3.44,1.94,4.56,3.09,3.15,6.51,5.98,10.61,9.67-4.8,4.49-9.23,8.52-13.52,12.7-1.63,1.59-3.87,3.31-4.27,5.28-2.1,10.37-3.7,20.84-5.55,31.7,13.46,2.32,26.29,4.52,39.31,6.76,3.16-19.76,6.22-38.83,9.49-59.24,8.2,17.57,15.8,33.87,23.83,51.08,5.36-13.7,10.31-26.36,15.26-39.02,3.82,19.92,6.84,39.63,9.81,59.36,1.93,12.82,1.89,12.87,14.55,14.86,9.61,1.51,19.23,2.92,28.78,4.36.68-6.78-1.87-10.27-7.6-13.28-18.85-9.91-30.49-34.72-27.46-55.88,2.06-14.39,7.59-27.12,16.48-38.55,1.12-1.44,1.66-3.91,1.41-5.77-1.67-12.36-3.6-24.69-5.5-37.02-1.82-11.82-3.71-23.63-5.64-35.89Zm-126.85,38.18c-4.66-3.91-8.71-7.85-13.29-11.05-25.69-17.94-65.48-10.53-85.65,10.06-16.23,16.56-20.4,36.54-12.87,58.1,7.41,21.22,24.37,31.34,45.88,34.08,19.85,2.53,38.22-3.06,55.67-12.05,8.71-4.49,16.53-10.25,23.25-17.92-8.94-8.02-17.58-15.76-26.18-23.48-16.23,14.2-27.16,19.05-38.04,16.76,16.88-17.95,33.61-35.75,51.24-54.5Zm-289.57,147.16c31.76.43,62.46-28.74,63.72-60.54,1.18-29.87-21.21-51.34-50.35-48.29-27.73,2.9-51.85,24.71-57.61,52.1-6.36,30.21,14,56.32,44.24,56.73Zm467.7-17.87c28.15.22,55.31-23.64,59.89-52.63,4.76-30.11-19.3-54.63-49.43-50.03-25.04,3.82-42.24,18.03-51.27,41.49-11.96,31.07,8.19,60.92,40.81,61.18Zm-245.75-171.11c17.49-8.7,34.81-17.32,52.47-26.1-6.27-8.44-12.25-16.48-18.43-24.8-12.85,15.46-25.26,30.39-37.74,45.39,1.27,1.89,2.37,3.52,3.7,5.51Zm-62.37,94.55c-.41-7.2-.8-14.01-1.19-20.85-4.7,4.95-9.52,10.02-14.25,15,4.9,1.86,10.12,3.84,15.44,5.85Z"/>
      <path class="cls-1" d="m135.57,138.18c8.58-5.16,17.28-6.6,26.11-4.83,21.11,4.22,24.16,23.65,18.01,38.43-4.91,11.79-15.24,18.43-25.91,25.5-6.14-19.92-12.13-39.36-18.21-59.11Zm14.73,6.8c3.49,10.83,6.81,21.12,10.18,31.56,10.72-8.08,11.84-17.09,8.75-24.64-3.26-7.95-11.01-7.21-18.93-6.93Z"/>
      <path class="cls-1" d="m468.79,171.38c-10.49-8.54-14.77-18.85-11.62-31.33,2.93-11.59,10.77-18.88,22.54-21.43,10.77-2.33,19.82,1.13,27.81,9.03-12.98,14.65-25.71,29.03-38.73,43.72Zm.37-15.47c8-8.94,15.68-17.54,23.46-26.24-6.99-3.09-15.3-1.64-20.22,3.26-5.93,5.9-7.32,14.77-3.24,22.98Z"/>
      <path class="cls-1" d="m291.03,178.93c6.06,10.65,4.4,21.91-3.98,30.05-9.08,8.82-23.72,10.3-34.56,3.51-10-6.27-14.5-17.76-11.13-28.43,3.54-11.19,15.56-18.64,28.16-17.8-3.03,2.5-6.78,4.86-9.55,8.06-3.04,3.51-2.87,7.98-1.05,12.25,2.82,6.59,10.42,10.44,18.19,9.28,8.23-1.24,13.2-7.04,13.91-16.91Z"/>
      <path class="cls-1" d="m735.56,153.15c-10.83,4.6-14.8,10.24-12.82,17.69,2.09,7.87,9.34,12.71,17.83,11.89,8.92-.86,14.24-6.53,14.72-15.7,5.09,4.88,4.92,15.87-.38,24.05-7.09,10.96-22.12,15.28-34.45,9.91-11.77-5.12-18.27-17.07-15.48-28.66,3.25-13.52,16.71-20.95,30.57-19.19Z"/>
    </g>
  </g>
</svg>